ISO-10303-21;
HEADER;
/* Generated by software containing ST-Developer
 * from STEP Tools, Inc. (www.steptools.com) 
 */

FILE_DESCRIPTION(
/* description */ (''),
/* implementation_level */ '2;1');

FILE_NAME(
/* name */ 'Prang_Lower_Middle_Section.step',
/* time_stamp */ '2026-08-13T10:38:48+07:00',
/* author */ (''),
/* organization */ (''),
/* preprocessor_version */ 'ST-DEVELOPER v20.1',
/* originating_system */ 'Autodesk Translation Framework v15.8.0.0',
/* authorisation */ '');

FILE_SCHEMA (('AUTOMOTIVE_DESIGN { 1 0 10303 214 3 1 1 }'));
ENDSEC;

DATA;
#10=MECHANICAL_DESIGN_GEOMETRIC_PRESENTATION_REPRESENTATION('',(#13),#969);
#11=SHAPE_REPRESENTATION_RELATIONSHIP('SRR','None',#976,#12);
#12=ADVANCED_BREP_SHAPE_REPRESENTATION('',(#14),#968);
#13=STYLED_ITEM('',(#985),#14);
#14=MANIFOLD_SOLID_BREP('Body1',#609);
#15=FACE_BOUND('',#74,.T.);
#16=FACE_OUTER_BOUND('',#45,.T.);
#17=FACE_OUTER_BOUND('',#46,.T.);
#18=FACE_OUTER_BOUND('',#47,.T.);
#19=FACE_OUTER_BOUND('',#48,.T.);
#20=FACE_OUTER_BOUND('',#49,.T.);
#21=FACE_OUTER_BOUND('',#50,.T.);
#22=FACE_OUTER_BOUND('',#51,.T.);
#23=FACE_OUTER_BOUND('',#52,.T.);
#24=FACE_OUTER_BOUND('',#53,.T.);
#25=FACE_OUTER_BOUND('',#54,.T.);
#26=FACE_OUTER_BOUND('',#55,.T.);
#27=FACE_OUTER_BOUND('',#56,.T.);
#28=FACE_OUTER_BOUND('',#57,.T.);
#29=FACE_OUTER_BOUND('',#58,.T.);
#30=FACE_OUTER_BOUND('',#59,.T.);
#31=FACE_OUTER_BOUND('',#60,.T.);
#32=FACE_OUTER_BOUND('',#61,.T.);
#33=FACE_OUTER_BOUND('',#62,.T.);
#34=FACE_OUTER_BOUND('',#63,.T.);
#35=FACE_OUTER_BOUND('',#64,.T.);
#36=FACE_OUTER_BOUND('',#65,.T.);
#37=FACE_OUTER_BOUND('',#66,.T.);
#38=FACE_OUTER_BOUND('',#67,.T.);
#39=FACE_OUTER_BOUND('',#68,.T.);
#40=FACE_OUTER_BOUND('',#69,.T.);
#41=FACE_OUTER_BOUND('',#70,.T.);
#42=FACE_OUTER_BOUND('',#71,.T.);
#43=FACE_OUTER_BOUND('',#72,.T.);
#44=FACE_OUTER_BOUND('',#73,.T.);
#45=EDGE_LOOP('',(#383,#384,#385,#386));
#46=EDGE_LOOP('',(#387,#388,#389,#390));
#47=EDGE_LOOP('',(#391,#392,#393,#394));
#48=EDGE_LOOP('',(#395,#396,#397,#398,#399,#400,#401,#402,#403,#404,#405,
#406));
#49=EDGE_LOOP('',(#407,#408,#409,#410));
#50=EDGE_LOOP('',(#411,#412,#413,#414));
#51=EDGE_LOOP('',(#415,#416,#417,#418));
#52=EDGE_LOOP('',(#419,#420,#421,#422,#423,#424,#425,#426));
#53=EDGE_LOOP('',(#427,#428,#429,#430));
#54=EDGE_LOOP('',(#431,#432,#433,#434));
#55=EDGE_LOOP('',(#435,#436,#437,#438));
#56=EDGE_LOOP('',(#439,#440,#441,#442));
#57=EDGE_LOOP('',(#443,#444,#445,#446));
#58=EDGE_LOOP('',(#447,#448,#449,#450,#451,#452,#453,#454,#455,#456,#457,
#458));
#59=EDGE_LOOP('',(#459,#460,#461,#462));
#60=EDGE_LOOP('',(#463,#464,#465,#466,#467,#468,#469,#470));
#61=EDGE_LOOP('',(#471,#472,#473,#474,#475,#476));
#62=EDGE_LOOP('',(#477,#478,#479,#480,#481,#482));
#63=EDGE_LOOP('',(#483,#484,#485,#486,#487,#488));
#64=EDGE_LOOP('',(#489,#490,#491,#492,#493,#494));
#65=EDGE_LOOP('',(#495,#496,#497,#498,#499,#500,#501,#502));
#66=EDGE_LOOP('',(#503,#504,#505,#506,#507,#508,#509,#510));
#67=EDGE_LOOP('',(#511,#512,#513,#514,#515,#516,#517,#518));
#68=EDGE_LOOP('',(#519,#520,#521,#522));
#69=EDGE_LOOP('',(#523,#524,#525,#526));
#70=EDGE_LOOP('',(#527,#528,#529,#530));
#71=EDGE_LOOP('',(#531,#532,#533,#534,#535,#536,#537,#538));
#72=EDGE_LOOP('',(#539,#540,#541,#542));
#73=EDGE_LOOP('',(#543,#544,#545,#546));
#74=EDGE_LOOP('',(#547,#548,#549,#550));
#75=LINE('',#800,#159);
#76=LINE('',#802,#160);
#77=LINE('',#804,#161);
#78=LINE('',#805,#162);
#79=LINE('',#809,#163);
#80=LINE('',#811,#164);
#81=LINE('',#813,#165);
#82=LINE('',#814,#166);
#83=LINE('',#818,#167);
#84=LINE('',#820,#168);
#85=LINE('',#822,#169);
#86=LINE('',#823,#170);
#87=LINE('',#826,#171);
#88=LINE('',#828,#172);
#89=LINE('',#829,#173);
#90=LINE('',#831,#174);
#91=LINE('',#833,#175);
#92=LINE('',#835,#176);
#93=LINE('',#837,#177);
#94=LINE('',#839,#178);
#95=LINE('',#841,#179);
#96=LINE('',#842,#180);
#97=LINE('',#845,#181);
#98=LINE('',#846,#182);
#99=LINE('',#849,#183);
#100=LINE('',#850,#184);
#101=LINE('',#852,#185);
#102=LINE('',#854,#186);
#103=LINE('',#855,#187);
#104=LINE('',#859,#188);
#105=LINE('',#861,#189);
#106=LINE('',#863,#190);
#107=LINE('',#864,#191);
#108=LINE('',#868,#192);
#109=LINE('',#870,#193);
#110=LINE('',#872,#194);
#111=LINE('',#873,#195);
#112=LINE('',#877,#196);
#113=LINE('',#879,#197);
#114=LINE('',#881,#198);
#115=LINE('',#882,#199);
#116=LINE('',#885,#200);
#117=LINE('',#887,#201);
#118=LINE('',#888,#202);
#119=LINE('',#891,#203);
#120=LINE('',#893,#204);
#121=LINE('',#894,#205);
#122=LINE('',#896,#206);
#123=LINE('',#898,#207);
#124=LINE('',#900,#208);
#125=LINE('',#902,#209);
#126=LINE('',#904,#210);
#127=LINE('',#906,#211);
#128=LINE('',#908,#212);
#129=LINE('',#909,#213);
#130=LINE('',#911,#214);
#131=LINE('',#913,#215);
#132=LINE('',#914,#216);
#133=LINE('',#917,#217);
#134=LINE('',#918,#218);
#135=LINE('',#921,#219);
#136=LINE('',#922,#220);
#137=LINE('',#925,#221);
#138=LINE('',#926,#222);
#139=LINE('',#929,#223);
#140=LINE('',#930,#224);
#141=LINE('',#933,#225);
#142=LINE('',#935,#226);
#143=LINE('',#937,#227);
#144=LINE('',#939,#228);
#145=LINE('',#940,#229);
#146=LINE('',#942,#230);
#147=LINE('',#944,#231);
#148=LINE('',#945,#232);
#149=LINE('',#948,#233);
#150=LINE('',#949,#234);
#151=LINE('',#950,#235);
#152=LINE('',#952,#236);
#153=LINE('',#954,#237);
#154=LINE('',#957,#238);
#155=LINE('',#958,#239);
#156=LINE('',#961,#240);
#157=LINE('',#962,#241);
#158=LINE('',#964,#242);
#159=VECTOR('',#656,10.);
#160=VECTOR('',#657,10.);
#161=VECTOR('',#658,10.);
#162=VECTOR('',#659,10.);
#163=VECTOR('',#662,10.);
#164=VECTOR('',#663,10.);
#165=VECTOR('',#664,10.);
#166=VECTOR('',#665,10.);
#167=VECTOR('',#668,10.);
#168=VECTOR('',#669,10.);
#169=VECTOR('',#670,10.);
#170=VECTOR('',#671,10.);
#171=VECTOR('',#674,10.);
#172=VECTOR('',#675,10.);
#173=VECTOR('',#676,10.);
#174=VECTOR('',#677,10.);
#175=VECTOR('',#678,10.);
#176=VECTOR('',#679,10.);
#177=VECTOR('',#680,10.);
#178=VECTOR('',#681,10.);
#179=VECTOR('',#682,10.);
#180=VECTOR('',#683,10.);
#181=VECTOR('',#686,10.);
#182=VECTOR('',#687,10.);
#183=VECTOR('',#690,10.);
#184=VECTOR('',#691,10.);
#185=VECTOR('',#694,10.);
#186=VECTOR('',#697,10.);
#187=VECTOR('',#698,10.);
#188=VECTOR('',#701,10.);
#189=VECTOR('',#702,10.);
#190=VECTOR('',#703,10.);
#191=VECTOR('',#704,10.);
#192=VECTOR('',#707,10.);
#193=VECTOR('',#708,10.);
#194=VECTOR('',#709,10.);
#195=VECTOR('',#710,10.);
#196=VECTOR('',#713,10.);
#197=VECTOR('',#714,10.);
#198=VECTOR('',#715,10.);
#199=VECTOR('',#716,10.);
#200=VECTOR('',#719,10.);
#201=VECTOR('',#720,10.);
#202=VECTOR('',#721,10.);
#203=VECTOR('',#724,10.);
#204=VECTOR('',#725,10.);
#205=VECTOR('',#726,10.);
#206=VECTOR('',#729,10.);
#207=VECTOR('',#730,10.);
#208=VECTOR('',#731,10.);
#209=VECTOR('',#732,10.);
#210=VECTOR('',#733,10.);
#211=VECTOR('',#734,10.);
#212=VECTOR('',#735,10.);
#213=VECTOR('',#736,10.);
#214=VECTOR('',#739,10.);
#215=VECTOR('',#742,10.);
#216=VECTOR('',#743,10.);
#217=VECTOR('',#746,10.);
#218=VECTOR('',#747,10.);
#219=VECTOR('',#750,10.);
#220=VECTOR('',#751,10.);
#221=VECTOR('',#754,10.);
#222=VECTOR('',#755,10.);
#223=VECTOR('',#758,10.);
#224=VECTOR('',#759,10.);
#225=VECTOR('',#762,10.);
#226=VECTOR('',#763,10.);
#227=VECTOR('',#764,10.);
#228=VECTOR('',#765,10.);
#229=VECTOR('',#766,10.);
#230=VECTOR('',#769,10.);
#231=VECTOR('',#770,10.);
#232=VECTOR('',#771,10.);
#233=VECTOR('',#774,10.);
#234=VECTOR('',#775,10.);
#235=VECTOR('',#776,10.);
#236=VECTOR('',#779,10.);
#237=VECTOR('',#782,10.);
#238=VECTOR('',#785,10.);
#239=VECTOR('',#786,10.);
#240=VECTOR('',#789,10.);
#241=VECTOR('',#790,10.);
#242=VECTOR('',#793,10.);
#243=VERTEX_POINT('',#798);
#244=VERTEX_POINT('',#799);
#245=VERTEX_POINT('',#801);
#246=VERTEX_POINT('',#803);
#247=VERTEX_POINT('',#807);
#248=VERTEX_POINT('',#808);
#249=VERTEX_POINT('',#810);
#250=VERTEX_POINT('',#812);
#251=VERTEX_POINT('',#816);
#252=VERTEX_POINT('',#817);
#253=VERTEX_POINT('',#819);
#254=VERTEX_POINT('',#821);
#255=VERTEX_POINT('',#825);
#256=VERTEX_POINT('',#827);
#257=VERTEX_POINT('',#830);
#258=VERTEX_POINT('',#832);
#259=VERTEX_POINT('',#834);
#260=VERTEX_POINT('',#836);
#261=VERTEX_POINT('',#838);
#262=VERTEX_POINT('',#840);
#263=VERTEX_POINT('',#844);
#264=VERTEX_POINT('',#848);
#265=VERTEX_POINT('',#857);
#266=VERTEX_POINT('',#858);
#267=VERTEX_POINT('',#860);
#268=VERTEX_POINT('',#862);
#269=VERTEX_POINT('',#866);
#270=VERTEX_POINT('',#867);
#271=VERTEX_POINT('',#869);
#272=VERTEX_POINT('',#871);
#273=VERTEX_POINT('',#875);
#274=VERTEX_POINT('',#876);
#275=VERTEX_POINT('',#878);
#276=VERTEX_POINT('',#880);
#277=VERTEX_POINT('',#884);
#278=VERTEX_POINT('',#886);
#279=VERTEX_POINT('',#890);
#280=VERTEX_POINT('',#892);
#281=VERTEX_POINT('',#897);
#282=VERTEX_POINT('',#899);
#283=VERTEX_POINT('',#901);
#284=VERTEX_POINT('',#903);
#285=VERTEX_POINT('',#905);
#286=VERTEX_POINT('',#907);
#287=VERTEX_POINT('',#916);
#288=VERTEX_POINT('',#920);
#289=VERTEX_POINT('',#924);
#290=VERTEX_POINT('',#928);
#291=VERTEX_POINT('',#932);
#292=VERTEX_POINT('',#934);
#293=VERTEX_POINT('',#936);
#294=VERTEX_POINT('',#938);
#295=VERTEX_POINT('',#943);
#296=VERTEX_POINT('',#947);
#297=VERTEX_POINT('',#956);
#298=VERTEX_POINT('',#960);
#299=EDGE_CURVE('',#243,#244,#75,.T.);
#300=EDGE_CURVE('',#243,#245,#76,.T.);
#301=EDGE_CURVE('',#245,#246,#77,.T.);
#302=EDGE_CURVE('',#246,#244,#78,.T.);
#303=EDGE_CURVE('',#247,#248,#79,.T.);
#304=EDGE_CURVE('',#249,#248,#80,.T.);
#305=EDGE_CURVE('',#250,#249,#81,.T.);
#306=EDGE_CURVE('',#250,#247,#82,.T.);
#307=EDGE_CURVE('',#251,#252,#83,.T.);
#308=EDGE_CURVE('',#252,#253,#84,.T.);
#309=EDGE_CURVE('',#253,#254,#85,.T.);
#310=EDGE_CURVE('',#251,#254,#86,.T.);
#311=EDGE_CURVE('',#244,#255,#87,.T.);
#312=EDGE_CURVE('',#255,#256,#88,.T.);
#313=EDGE_CURVE('',#256,#251,#89,.T.);
#314=EDGE_CURVE('',#254,#257,#90,.T.);
#315=EDGE_CURVE('',#258,#257,#91,.T.);
#316=EDGE_CURVE('',#259,#258,#92,.T.);
#317=EDGE_CURVE('',#259,#260,#93,.T.);
#318=EDGE_CURVE('',#260,#261,#94,.T.);
#319=EDGE_CURVE('',#262,#261,#95,.T.);
#320=EDGE_CURVE('',#262,#243,#96,.T.);
#321=EDGE_CURVE('',#256,#263,#97,.T.);
#322=EDGE_CURVE('',#263,#252,#98,.T.);
#323=EDGE_CURVE('',#264,#246,#99,.T.);
#324=EDGE_CURVE('',#264,#255,#100,.T.);
#325=EDGE_CURVE('',#264,#263,#101,.T.);
#326=EDGE_CURVE('',#247,#245,#102,.T.);
#327=EDGE_CURVE('',#250,#253,#103,.T.);
#328=EDGE_CURVE('',#265,#266,#104,.T.);
#329=EDGE_CURVE('',#267,#266,#105,.T.);
#330=EDGE_CURVE('',#267,#268,#106,.T.);
#331=EDGE_CURVE('',#268,#265,#107,.T.);
#332=EDGE_CURVE('',#269,#270,#108,.T.);
#333=EDGE_CURVE('',#271,#270,#109,.T.);
#334=EDGE_CURVE('',#271,#272,#110,.T.);
#335=EDGE_CURVE('',#272,#269,#111,.T.);
#336=EDGE_CURVE('',#273,#274,#112,.T.);
#337=EDGE_CURVE('',#274,#275,#113,.T.);
#338=EDGE_CURVE('',#275,#276,#114,.T.);
#339=EDGE_CURVE('',#273,#276,#115,.T.);
#340=EDGE_CURVE('',#277,#273,#116,.T.);
#341=EDGE_CURVE('',#277,#278,#117,.T.);
#342=EDGE_CURVE('',#278,#274,#118,.T.);
#343=EDGE_CURVE('',#266,#279,#119,.T.);
#344=EDGE_CURVE('',#280,#265,#120,.T.);
#345=EDGE_CURVE('',#280,#279,#121,.T.);
#346=EDGE_CURVE('',#279,#277,#122,.T.);
#347=EDGE_CURVE('',#276,#281,#123,.T.);
#348=EDGE_CURVE('',#282,#281,#124,.T.);
#349=EDGE_CURVE('',#283,#282,#125,.T.);
#350=EDGE_CURVE('',#283,#284,#126,.T.);
#351=EDGE_CURVE('',#284,#285,#127,.T.);
#352=EDGE_CURVE('',#286,#285,#128,.T.);
#353=EDGE_CURVE('',#286,#267,#129,.T.);
#354=EDGE_CURVE('',#280,#278,#130,.T.);
#355=EDGE_CURVE('',#269,#268,#131,.T.);
#356=EDGE_CURVE('',#272,#275,#132,.T.);
#357=EDGE_CURVE('',#287,#286,#133,.T.);
#358=EDGE_CURVE('',#270,#287,#134,.T.);
#359=EDGE_CURVE('',#288,#249,#135,.T.);
#360=EDGE_CURVE('',#257,#288,#136,.T.);
#361=EDGE_CURVE('',#289,#271,#137,.T.);
#362=EDGE_CURVE('',#281,#289,#138,.T.);
#363=EDGE_CURVE('',#290,#262,#139,.T.);
#364=EDGE_CURVE('',#248,#290,#140,.T.);
#365=EDGE_CURVE('',#291,#290,#141,.T.);
#366=EDGE_CURVE('',#292,#291,#142,.T.);
#367=EDGE_CURVE('',#292,#293,#143,.T.);
#368=EDGE_CURVE('',#293,#294,#144,.T.);
#369=EDGE_CURVE('',#288,#294,#145,.T.);
#370=EDGE_CURVE('',#261,#282,#146,.T.);
#371=EDGE_CURVE('',#289,#295,#147,.T.);
#372=EDGE_CURVE('',#295,#291,#148,.T.);
#373=EDGE_CURVE('',#294,#296,#149,.T.);
#374=EDGE_CURVE('',#296,#287,#150,.T.);
#375=EDGE_CURVE('',#285,#258,#151,.T.);
#376=EDGE_CURVE('',#260,#283,#152,.T.);
#377=EDGE_CURVE('',#284,#259,#153,.T.);
#378=EDGE_CURVE('',#297,#292,#154,.T.);
#379=EDGE_CURVE('',#297,#295,#155,.T.);
#380=EDGE_CURVE('',#298,#296,#156,.T.);
#381=EDGE_CURVE('',#298,#297,#157,.T.);
#382=EDGE_CURVE('',#293,#298,#158,.T.);
#383=ORIENTED_EDGE('',*,*,#299,.F.);
#384=ORIENTED_EDGE('',*,*,#300,.T.);
#385=ORIENTED_EDGE('',*,*,#301,.T.);
#386=ORIENTED_EDGE('',*,*,#302,.T.);
#387=ORIENTED_EDGE('',*,*,#303,.T.);
#388=ORIENTED_EDGE('',*,*,#304,.F.);
#389=ORIENTED_EDGE('',*,*,#305,.F.);
#390=ORIENTED_EDGE('',*,*,#306,.T.);
#391=ORIENTED_EDGE('',*,*,#307,.T.);
#392=ORIENTED_EDGE('',*,*,#308,.T.);
#393=ORIENTED_EDGE('',*,*,#309,.T.);
#394=ORIENTED_EDGE('',*,*,#310,.F.);
#395=ORIENTED_EDGE('',*,*,#311,.T.);
#396=ORIENTED_EDGE('',*,*,#312,.T.);
#397=ORIENTED_EDGE('',*,*,#313,.T.);
#398=ORIENTED_EDGE('',*,*,#310,.T.);
#399=ORIENTED_EDGE('',*,*,#314,.T.);
#400=ORIENTED_EDGE('',*,*,#315,.F.);
#401=ORIENTED_EDGE('',*,*,#316,.F.);
#402=ORIENTED_EDGE('',*,*,#317,.T.);
#403=ORIENTED_EDGE('',*,*,#318,.T.);
#404=ORIENTED_EDGE('',*,*,#319,.F.);
#405=ORIENTED_EDGE('',*,*,#320,.T.);
#406=ORIENTED_EDGE('',*,*,#299,.T.);
#407=ORIENTED_EDGE('',*,*,#313,.F.);
#408=ORIENTED_EDGE('',*,*,#321,.T.);
#409=ORIENTED_EDGE('',*,*,#322,.T.);
#410=ORIENTED_EDGE('',*,*,#307,.F.);
#411=ORIENTED_EDGE('',*,*,#311,.F.);
#412=ORIENTED_EDGE('',*,*,#302,.F.);
#413=ORIENTED_EDGE('',*,*,#323,.F.);
#414=ORIENTED_EDGE('',*,*,#324,.T.);
#415=ORIENTED_EDGE('',*,*,#312,.F.);
#416=ORIENTED_EDGE('',*,*,#324,.F.);
#417=ORIENTED_EDGE('',*,*,#325,.T.);
#418=ORIENTED_EDGE('',*,*,#321,.F.);
#419=ORIENTED_EDGE('',*,*,#325,.F.);
#420=ORIENTED_EDGE('',*,*,#323,.T.);
#421=ORIENTED_EDGE('',*,*,#301,.F.);
#422=ORIENTED_EDGE('',*,*,#326,.F.);
#423=ORIENTED_EDGE('',*,*,#306,.F.);
#424=ORIENTED_EDGE('',*,*,#327,.T.);
#425=ORIENTED_EDGE('',*,*,#308,.F.);
#426=ORIENTED_EDGE('',*,*,#322,.F.);
#427=ORIENTED_EDGE('',*,*,#328,.T.);
#428=ORIENTED_EDGE('',*,*,#329,.F.);
#429=ORIENTED_EDGE('',*,*,#330,.T.);
#430=ORIENTED_EDGE('',*,*,#331,.T.);
#431=ORIENTED_EDGE('',*,*,#332,.T.);
#432=ORIENTED_EDGE('',*,*,#333,.F.);
#433=ORIENTED_EDGE('',*,*,#334,.T.);
#434=ORIENTED_EDGE('',*,*,#335,.T.);
#435=ORIENTED_EDGE('',*,*,#336,.T.);
#436=ORIENTED_EDGE('',*,*,#337,.T.);
#437=ORIENTED_EDGE('',*,*,#338,.T.);
#438=ORIENTED_EDGE('',*,*,#339,.F.);
#439=ORIENTED_EDGE('',*,*,#340,.F.);
#440=ORIENTED_EDGE('',*,*,#341,.T.);
#441=ORIENTED_EDGE('',*,*,#342,.T.);
#442=ORIENTED_EDGE('',*,*,#336,.F.);
#443=ORIENTED_EDGE('',*,*,#343,.F.);
#444=ORIENTED_EDGE('',*,*,#328,.F.);
#445=ORIENTED_EDGE('',*,*,#344,.F.);
#446=ORIENTED_EDGE('',*,*,#345,.T.);
#447=ORIENTED_EDGE('',*,*,#343,.T.);
#448=ORIENTED_EDGE('',*,*,#346,.T.);
#449=ORIENTED_EDGE('',*,*,#340,.T.);
#450=ORIENTED_EDGE('',*,*,#339,.T.);
#451=ORIENTED_EDGE('',*,*,#347,.T.);
#452=ORIENTED_EDGE('',*,*,#348,.F.);
#453=ORIENTED_EDGE('',*,*,#349,.F.);
#454=ORIENTED_EDGE('',*,*,#350,.T.);
#455=ORIENTED_EDGE('',*,*,#351,.T.);
#456=ORIENTED_EDGE('',*,*,#352,.F.);
#457=ORIENTED_EDGE('',*,*,#353,.T.);
#458=ORIENTED_EDGE('',*,*,#329,.T.);
#459=ORIENTED_EDGE('',*,*,#346,.F.);
#460=ORIENTED_EDGE('',*,*,#345,.F.);
#461=ORIENTED_EDGE('',*,*,#354,.T.);
#462=ORIENTED_EDGE('',*,*,#341,.F.);
#463=ORIENTED_EDGE('',*,*,#354,.F.);
#464=ORIENTED_EDGE('',*,*,#344,.T.);
#465=ORIENTED_EDGE('',*,*,#331,.F.);
#466=ORIENTED_EDGE('',*,*,#355,.F.);
#467=ORIENTED_EDGE('',*,*,#335,.F.);
#468=ORIENTED_EDGE('',*,*,#356,.T.);
#469=ORIENTED_EDGE('',*,*,#337,.F.);
#470=ORIENTED_EDGE('',*,*,#342,.F.);
#471=ORIENTED_EDGE('',*,*,#353,.F.);
#472=ORIENTED_EDGE('',*,*,#357,.F.);
#473=ORIENTED_EDGE('',*,*,#358,.F.);
#474=ORIENTED_EDGE('',*,*,#332,.F.);
#475=ORIENTED_EDGE('',*,*,#355,.T.);
#476=ORIENTED_EDGE('',*,*,#330,.F.);
#477=ORIENTED_EDGE('',*,*,#305,.T.);
#478=ORIENTED_EDGE('',*,*,#359,.F.);
#479=ORIENTED_EDGE('',*,*,#360,.F.);
#480=ORIENTED_EDGE('',*,*,#314,.F.);
#481=ORIENTED_EDGE('',*,*,#309,.F.);
#482=ORIENTED_EDGE('',*,*,#327,.F.);
#483=ORIENTED_EDGE('',*,*,#334,.F.);
#484=ORIENTED_EDGE('',*,*,#361,.F.);
#485=ORIENTED_EDGE('',*,*,#362,.F.);
#486=ORIENTED_EDGE('',*,*,#347,.F.);
#487=ORIENTED_EDGE('',*,*,#338,.F.);
#488=ORIENTED_EDGE('',*,*,#356,.F.);
#489=ORIENTED_EDGE('',*,*,#320,.F.);
#490=ORIENTED_EDGE('',*,*,#363,.F.);
#491=ORIENTED_EDGE('',*,*,#364,.F.);
#492=ORIENTED_EDGE('',*,*,#303,.F.);
#493=ORIENTED_EDGE('',*,*,#326,.T.);
#494=ORIENTED_EDGE('',*,*,#300,.F.);
#495=ORIENTED_EDGE('',*,*,#359,.T.);
#496=ORIENTED_EDGE('',*,*,#304,.T.);
#497=ORIENTED_EDGE('',*,*,#364,.T.);
#498=ORIENTED_EDGE('',*,*,#365,.F.);
#499=ORIENTED_EDGE('',*,*,#366,.F.);
#500=ORIENTED_EDGE('',*,*,#367,.T.);
#501=ORIENTED_EDGE('',*,*,#368,.T.);
#502=ORIENTED_EDGE('',*,*,#369,.F.);
#503=ORIENTED_EDGE('',*,*,#363,.T.);
#504=ORIENTED_EDGE('',*,*,#319,.T.);
#505=ORIENTED_EDGE('',*,*,#370,.T.);
#506=ORIENTED_EDGE('',*,*,#348,.T.);
#507=ORIENTED_EDGE('',*,*,#362,.T.);
#508=ORIENTED_EDGE('',*,*,#371,.T.);
#509=ORIENTED_EDGE('',*,*,#372,.T.);
#510=ORIENTED_EDGE('',*,*,#365,.T.);
#511=ORIENTED_EDGE('',*,*,#360,.T.);
#512=ORIENTED_EDGE('',*,*,#369,.T.);
#513=ORIENTED_EDGE('',*,*,#373,.T.);
#514=ORIENTED_EDGE('',*,*,#374,.T.);
#515=ORIENTED_EDGE('',*,*,#357,.T.);
#516=ORIENTED_EDGE('',*,*,#352,.T.);
#517=ORIENTED_EDGE('',*,*,#375,.T.);
#518=ORIENTED_EDGE('',*,*,#315,.T.);
#519=ORIENTED_EDGE('',*,*,#376,.T.);
#520=ORIENTED_EDGE('',*,*,#349,.T.);
#521=ORIENTED_EDGE('',*,*,#370,.F.);
#522=ORIENTED_EDGE('',*,*,#318,.F.);
#523=ORIENTED_EDGE('',*,*,#377,.T.);
#524=ORIENTED_EDGE('',*,*,#316,.T.);
#525=ORIENTED_EDGE('',*,*,#375,.F.);
#526=ORIENTED_EDGE('',*,*,#351,.F.);
#527=ORIENTED_EDGE('',*,*,#378,.T.);
#528=ORIENTED_EDGE('',*,*,#366,.T.);
#529=ORIENTED_EDGE('',*,*,#372,.F.);
#530=ORIENTED_EDGE('',*,*,#379,.F.);
#531=ORIENTED_EDGE('',*,*,#358,.T.);
#532=ORIENTED_EDGE('',*,*,#374,.F.);
#533=ORIENTED_EDGE('',*,*,#380,.F.);
#534=ORIENTED_EDGE('',*,*,#381,.T.);
#535=ORIENTED_EDGE('',*,*,#379,.T.);
#536=ORIENTED_EDGE('',*,*,#371,.F.);
#537=ORIENTED_EDGE('',*,*,#361,.T.);
#538=ORIENTED_EDGE('',*,*,#333,.T.);
#539=ORIENTED_EDGE('',*,*,#382,.T.);
#540=ORIENTED_EDGE('',*,*,#380,.T.);
#541=ORIENTED_EDGE('',*,*,#373,.F.);
#542=ORIENTED_EDGE('',*,*,#368,.F.);
#543=ORIENTED_EDGE('',*,*,#382,.F.);
#544=ORIENTED_EDGE('',*,*,#367,.F.);
#545=ORIENTED_EDGE('',*,*,#378,.F.);
#546=ORIENTED_EDGE('',*,*,#381,.F.);
#547=ORIENTED_EDGE('',*,*,#377,.F.);
#548=ORIENTED_EDGE('',*,*,#350,.F.);
#549=ORIENTED_EDGE('',*,*,#376,.F.);
#550=ORIENTED_EDGE('',*,*,#317,.F.);
#551=PLANE('',#623);
#552=PLANE('',#624);
#553=PLANE('',#625);
#554=PLANE('',#626);
#555=PLANE('',#627);
#556=PLANE('',#628);
#557=PLANE('',#629);
#558=PLANE('',#630);
#559=PLANE('',#631);
#560=PLANE('',#632);
#561=PLANE('',#633);
#562=PLANE('',#634);
#563=PLANE('',#635);
#564=PLANE('',#636);
#565=PLANE('',#637);
#566=PLANE('',#638);
#567=PLANE('',#639);
#568=PLANE('',#640);
#569=PLANE('',#641);
#570=PLANE('',#642);
#571=PLANE('',#643);
#572=PLANE('',#644);
#573=PLANE('',#645);
#574=PLANE('',#646);
#575=PLANE('',#647);
#576=PLANE('',#648);
#577=PLANE('',#649);
#578=PLANE('',#650);
#579=PLANE('',#651);
#580=ADVANCED_FACE('',(#16),#551,.T.);
#581=ADVANCED_FACE('',(#17),#552,.F.);
#582=ADVANCED_FACE('',(#18),#553,.T.);
#583=ADVANCED_FACE('',(#19),#554,.T.);
#584=ADVANCED_FACE('',(#20),#555,.T.);
#585=ADVANCED_FACE('',(#21),#556,.T.);
#586=ADVANCED_FACE('',(#22),#557,.T.);
#587=ADVANCED_FACE('',(#23),#558,.T.);
#588=ADVANCED_FACE('',(#24),#559,.T.);
#589=ADVANCED_FACE('',(#25),#560,.F.);
#590=ADVANCED_FACE('',(#26),#561,.T.);
#591=ADVANCED_FACE('',(#27),#562,.T.);
#592=ADVANCED_FACE('',(#28),#563,.T.);
#593=ADVANCED_FACE('',(#29),#564,.T.);
#594=ADVANCED_FACE('',(#30),#565,.T.);
#595=ADVANCED_FACE('',(#31),#566,.T.);
#596=ADVANCED_FACE('',(#32),#567,.F.);
#597=ADVANCED_FACE('',(#33),#568,.F.);
#598=ADVANCED_FACE('',(#34),#569,.F.);
#599=ADVANCED_FACE('',(#35),#570,.F.);
#600=ADVANCED_FACE('',(#36),#571,.T.);
#601=ADVANCED_FACE('',(#37),#572,.T.);
#602=ADVANCED_FACE('',(#38),#573,.T.);
#603=ADVANCED_FACE('',(#39),#574,.T.);
#604=ADVANCED_FACE('',(#40),#575,.T.);
#605=ADVANCED_FACE('',(#41),#576,.T.);
#606=ADVANCED_FACE('',(#42),#577,.T.);
#607=ADVANCED_FACE('',(#43),#578,.T.);
#608=ADVANCED_FACE('',(#44,#15),#579,.F.);
#609=CLOSED_SHELL('',(#580,#581,#582,#583,#584,#585,#586,#587,#588,#589,
#590,#591,#592,#593,#594,#595,#596,#597,#598,#599,#600,#601,#602,#603,#604,
#605,#606,#607,#608));
#610=DERIVED_UNIT_ELEMENT(#612,1.);
#611=DERIVED_UNIT_ELEMENT(#971,-3.);
#612=(
MASS_UNIT()
NAMED_UNIT(*)
SI_UNIT(.KILO.,.GRAM.)
);
#613=DERIVED_UNIT((#610,#611));
#614=MEASURE_REPRESENTATION_ITEM('density measure',
POSITIVE_RATIO_MEASURE(7850.),#613);
#615=PROPERTY_DEFINITION_REPRESENTATION(#620,#617);
#616=PROPERTY_DEFINITION_REPRESENTATION(#621,#618);
#617=REPRESENTATION('material name',(#619),#968);
#618=REPRESENTATION('density',(#614),#968);
#619=DESCRIPTIVE_REPRESENTATION_ITEM('Steel','Steel');
#620=PROPERTY_DEFINITION('material property','material name',#978);
#621=PROPERTY_DEFINITION('material property','density of part',#978);
#622=AXIS2_PLACEMENT_3D('',#796,#652,#653);
#623=AXIS2_PLACEMENT_3D('',#797,#654,#655);
#624=AXIS2_PLACEMENT_3D('',#806,#660,#661);
#625=AXIS2_PLACEMENT_3D('',#815,#666,#667);
#626=AXIS2_PLACEMENT_3D('',#824,#672,#673);
#627=AXIS2_PLACEMENT_3D('',#843,#684,#685);
#628=AXIS2_PLACEMENT_3D('',#847,#688,#689);
#629=AXIS2_PLACEMENT_3D('',#851,#692,#693);
#630=AXIS2_PLACEMENT_3D('',#853,#695,#696);
#631=AXIS2_PLACEMENT_3D('',#856,#699,#700);
#632=AXIS2_PLACEMENT_3D('',#865,#705,#706);
#633=AXIS2_PLACEMENT_3D('',#874,#711,#712);
#634=AXIS2_PLACEMENT_3D('',#883,#717,#718);
#635=AXIS2_PLACEMENT_3D('',#889,#722,#723);
#636=AXIS2_PLACEMENT_3D('',#895,#727,#728);
#637=AXIS2_PLACEMENT_3D('',#910,#737,#738);
#638=AXIS2_PLACEMENT_3D('',#912,#740,#741);
#639=AXIS2_PLACEMENT_3D('',#915,#744,#745);
#640=AXIS2_PLACEMENT_3D('',#919,#748,#749);
#641=AXIS2_PLACEMENT_3D('',#923,#752,#753);
#642=AXIS2_PLACEMENT_3D('',#927,#756,#757);
#643=AXIS2_PLACEMENT_3D('',#931,#760,#761);
#644=AXIS2_PLACEMENT_3D('',#941,#767,#768);
#645=AXIS2_PLACEMENT_3D('',#946,#772,#773);
#646=AXIS2_PLACEMENT_3D('',#951,#777,#778);
#647=AXIS2_PLACEMENT_3D('',#953,#780,#781);
#648=AXIS2_PLACEMENT_3D('',#955,#783,#784);
#649=AXIS2_PLACEMENT_3D('',#959,#787,#788);
#650=AXIS2_PLACEMENT_3D('',#963,#791,#792);
#651=AXIS2_PLACEMENT_3D('',#965,#794,#795);
#652=DIRECTION('axis',(0.,0.,1.));
#653=DIRECTION('refdir',(1.,0.,0.));
#654=DIRECTION('center_axis',(0.,0.,1.));
#655=DIRECTION('ref_axis',(1.,0.,0.));
#656=DIRECTION('',(1.,0.,0.));
#657=DIRECTION('',(0.,-1.,0.));
#658=DIRECTION('',(1.,0.,0.));
#659=DIRECTION('',(0.,1.,0.));
#660=DIRECTION('center_axis',(0.,0.,-1.));
#661=DIRECTION('ref_axis',(-1.,0.,0.));
#662=DIRECTION('',(0.,1.,0.));
#663=DIRECTION('',(1.,0.,0.));
#664=DIRECTION('',(0.,1.,0.));
#665=DIRECTION('',(1.,0.,0.));
#666=DIRECTION('center_axis',(0.,0.,1.));
#667=DIRECTION('ref_axis',(1.,0.,0.));
#668=DIRECTION('',(0.,-1.,0.));
#669=DIRECTION('',(1.,0.,0.));
#670=DIRECTION('',(0.,1.,0.));
#671=DIRECTION('',(1.,0.,0.));
#672=DIRECTION('center_axis',(0.,-1.,0.));
#673=DIRECTION('ref_axis',(1.,0.,0.));
#674=DIRECTION('',(0.,0.,-1.));
#675=DIRECTION('',(-1.,0.,0.));
#676=DIRECTION('',(0.,0.,1.));
#677=DIRECTION('',(0.,0.,1.));
#678=DIRECTION('',(1.,0.,0.));
#679=DIRECTION('',(0.,0.,1.));
#680=DIRECTION('',(1.,0.,0.));
#681=DIRECTION('',(0.,0.,1.));
#682=DIRECTION('',(1.,0.,0.));
#683=DIRECTION('',(0.,0.,-1.));
#684=DIRECTION('center_axis',(-1.,0.,0.));
#685=DIRECTION('ref_axis',(0.,0.,1.));
#686=DIRECTION('',(0.,-1.,0.));
#687=DIRECTION('',(0.,0.,1.));
#688=DIRECTION('center_axis',(1.,0.,0.));
#689=DIRECTION('ref_axis',(0.,0.,-1.));
#690=DIRECTION('',(0.,0.,1.));
#691=DIRECTION('',(0.,1.,0.));
#692=DIRECTION('center_axis',(0.,0.,-1.));
#693=DIRECTION('ref_axis',(1.,0.,0.));
#694=DIRECTION('',(-1.,0.,0.));
#695=DIRECTION('center_axis',(0.,-1.,0.));
#696=DIRECTION('ref_axis',(0.,0.,-1.));
#697=DIRECTION('',(0.,0.,1.));
#698=DIRECTION('',(0.,0.,1.));
#699=DIRECTION('center_axis',(0.,0.,1.));
#700=DIRECTION('ref_axis',(1.,0.,0.));
#701=DIRECTION('',(0.,-1.,0.));
#702=DIRECTION('',(-1.,0.,0.));
#703=DIRECTION('',(0.,1.,0.));
#704=DIRECTION('',(-1.,0.,0.));
#705=DIRECTION('center_axis',(0.,0.,-1.));
#706=DIRECTION('ref_axis',(-1.,0.,0.));
#707=DIRECTION('',(0.,-1.,0.));
#708=DIRECTION('',(-1.,0.,0.));
#709=DIRECTION('',(0.,1.,0.));
#710=DIRECTION('',(-1.,0.,0.));
#711=DIRECTION('center_axis',(0.,0.,1.));
#712=DIRECTION('ref_axis',(1.,0.,0.));
#713=DIRECTION('',(0.,1.,0.));
#714=DIRECTION('',(-1.,0.,0.));
#715=DIRECTION('',(0.,-1.,0.));
#716=DIRECTION('',(-1.,0.,0.));
#717=DIRECTION('center_axis',(1.,0.,0.));
#718=DIRECTION('ref_axis',(0.,0.,-1.));
#719=DIRECTION('',(0.,0.,1.));
#720=DIRECTION('',(0.,1.,0.));
#721=DIRECTION('',(0.,0.,1.));
#722=DIRECTION('center_axis',(-1.,0.,0.));
#723=DIRECTION('ref_axis',(0.,0.,1.));
#724=DIRECTION('',(0.,0.,-1.));
#725=DIRECTION('',(0.,0.,1.));
#726=DIRECTION('',(0.,-1.,0.));
#727=DIRECTION('center_axis',(0.,1.,0.));
#728=DIRECTION('ref_axis',(-1.,0.,0.));
#729=DIRECTION('',(1.,0.,0.));
#730=DIRECTION('',(0.,0.,1.));
#731=DIRECTION('',(-1.,0.,0.));
#732=DIRECTION('',(0.,0.,1.));
#733=DIRECTION('',(-1.,0.,0.));
#734=DIRECTION('',(0.,0.,1.));
#735=DIRECTION('',(-1.,0.,0.));
#736=DIRECTION('',(0.,0.,-1.));
#737=DIRECTION('center_axis',(0.,0.,-1.));
#738=DIRECTION('ref_axis',(-1.,0.,0.));
#739=DIRECTION('',(1.,0.,0.));
#740=DIRECTION('center_axis',(0.,1.,0.));
#741=DIRECTION('ref_axis',(0.,0.,1.));
#742=DIRECTION('',(0.,0.,1.));
#743=DIRECTION('',(0.,0.,1.));
#744=DIRECTION('center_axis',(-1.,0.,0.));
#745=DIRECTION('ref_axis',(0.,0.,1.));
#746=DIRECTION('',(0.,1.,0.));
#747=DIRECTION('',(0.,0.,1.));
#748=DIRECTION('center_axis',(-1.,0.,0.));
#749=DIRECTION('ref_axis',(0.,0.,1.));
#750=DIRECTION('',(0.,0.,-1.));
#751=DIRECTION('',(0.,1.,0.));
#752=DIRECTION('center_axis',(1.,0.,0.));
#753=DIRECTION('ref_axis',(0.,0.,-1.));
#754=DIRECTION('',(0.,0.,-1.));
#755=DIRECTION('',(0.,-1.,0.));
#756=DIRECTION('center_axis',(1.,0.,0.));
#757=DIRECTION('ref_axis',(0.,0.,-1.));
#758=DIRECTION('',(0.,-1.,0.));
#759=DIRECTION('',(0.,0.,1.));
#760=DIRECTION('center_axis',(0.,1.,0.));
#761=DIRECTION('ref_axis',(-1.,0.,0.));
#762=DIRECTION('',(-1.,0.,0.));
#763=DIRECTION('',(0.,0.,1.));
#764=DIRECTION('',(-1.,0.,0.));
#765=DIRECTION('',(0.,0.,1.));
#766=DIRECTION('',(-1.,0.,0.));
#767=DIRECTION('center_axis',(0.,0.,1.));
#768=DIRECTION('ref_axis',(1.,0.,0.));
#769=DIRECTION('',(0.,-1.,0.));
#770=DIRECTION('',(1.,0.,0.));
#771=DIRECTION('',(0.,1.,0.));
#772=DIRECTION('center_axis',(0.,0.,1.));
#773=DIRECTION('ref_axis',(1.,0.,0.));
#774=DIRECTION('',(0.,-1.,0.));
#775=DIRECTION('',(1.,0.,0.));
#776=DIRECTION('',(0.,1.,0.));
#777=DIRECTION('center_axis',(-1.,0.,0.));
#778=DIRECTION('ref_axis',(0.,-1.,0.));
#779=DIRECTION('',(0.,-1.,0.));
#780=DIRECTION('center_axis',(1.,0.,0.));
#781=DIRECTION('ref_axis',(0.,1.,0.));
#782=DIRECTION('',(0.,1.,0.));
#783=DIRECTION('center_axis',(1.,0.,0.));
#784=DIRECTION('ref_axis',(0.,1.,0.));
#785=DIRECTION('',(0.,1.,0.));
#786=DIRECTION('',(0.,0.,1.));
#787=DIRECTION('center_axis',(0.,-1.,0.));
#788=DIRECTION('ref_axis',(1.,0.,0.));
#789=DIRECTION('',(0.,0.,1.));
#790=DIRECTION('',(1.,0.,0.));
#791=DIRECTION('center_axis',(-1.,0.,0.));
#792=DIRECTION('ref_axis',(0.,-1.,0.));
#793=DIRECTION('',(0.,-1.,0.));
#794=DIRECTION('center_axis',(0.,0.,1.));
#795=DIRECTION('ref_axis',(1.,0.,0.));
#796=CARTESIAN_POINT('',(0.,0.,0.));
#797=CARTESIAN_POINT('Origin',(84.75,113.5,59.));
#798=CARTESIAN_POINT('',(83.25,116.,59.));
#799=CARTESIAN_POINT('',(86.25,116.,59.));
#800=CARTESIAN_POINT('',(44.375,116.,59.));
#801=CARTESIAN_POINT('',(83.25,111.,59.));
#802=CARTESIAN_POINT('',(83.25,111.,59.));
#803=CARTESIAN_POINT('',(86.25,111.,59.));
#804=CARTESIAN_POINT('',(86.25,111.,59.));
#805=CARTESIAN_POINT('',(86.25,116.,59.));
#806=CARTESIAN_POINT('Origin',(83.25,0.,14.));
#807=CARTESIAN_POINT('',(83.25,111.,14.));
#808=CARTESIAN_POINT('',(83.25,120.,14.));
#809=CARTESIAN_POINT('',(83.25,58.,14.));
#810=CARTESIAN_POINT('',(36.75,120.,14.));
#811=CARTESIAN_POINT('',(101.625,120.,14.));
#812=CARTESIAN_POINT('',(36.75,111.,14.));
#813=CARTESIAN_POINT('',(36.75,0.,14.));
#814=CARTESIAN_POINT('',(83.25,111.,14.));
#815=CARTESIAN_POINT('Origin',(35.25,113.5,59.));
#816=CARTESIAN_POINT('',(33.75,116.,59.));
#817=CARTESIAN_POINT('',(33.75,111.,59.));
#818=CARTESIAN_POINT('',(33.75,116.,59.));
#819=CARTESIAN_POINT('',(36.75,111.,59.));
#820=CARTESIAN_POINT('',(33.75,111.,59.));
#821=CARTESIAN_POINT('',(36.75,116.,59.));
#822=CARTESIAN_POINT('',(36.75,111.,59.));
#823=CARTESIAN_POINT('',(19.625,116.,59.));
#824=CARTESIAN_POINT('Origin',(4.,116.,0.));
#825=CARTESIAN_POINT('',(86.25,116.,9.));
#826=CARTESIAN_POINT('',(86.25,116.,7.));
#827=CARTESIAN_POINT('',(33.75,116.,9.));
#828=CARTESIAN_POINT('',(20.375,116.,9.));
#829=CARTESIAN_POINT('',(33.75,116.,7.));
#830=CARTESIAN_POINT('',(36.75,116.,60.));
#831=CARTESIAN_POINT('',(36.75,116.,7.));
#832=CARTESIAN_POINT('',(4.,116.,60.));
#833=CARTESIAN_POINT('',(116.,116.,60.));
#834=CARTESIAN_POINT('',(4.,116.,0.));
#835=CARTESIAN_POINT('',(4.,116.,0.));
#836=CARTESIAN_POINT('',(116.,116.,0.));
#837=CARTESIAN_POINT('',(116.,116.,0.));
#838=CARTESIAN_POINT('',(116.,116.,60.));
#839=CARTESIAN_POINT('',(116.,116.,0.));
#840=CARTESIAN_POINT('',(83.25,116.,60.));
#841=CARTESIAN_POINT('',(116.,116.,60.));
#842=CARTESIAN_POINT('',(83.25,116.,30.));
#843=CARTESIAN_POINT('Origin',(33.75,116.,14.));
#844=CARTESIAN_POINT('',(33.75,111.,9.));
#845=CARTESIAN_POINT('',(33.75,116.,9.));
#846=CARTESIAN_POINT('',(33.75,111.,9.));
#847=CARTESIAN_POINT('Origin',(86.25,116.,9.));
#848=CARTESIAN_POINT('',(86.25,111.,9.));
#849=CARTESIAN_POINT('',(86.25,111.,14.));
#850=CARTESIAN_POINT('',(86.25,116.,9.));
#851=CARTESIAN_POINT('Origin',(36.75,116.,9.));
#852=CARTESIAN_POINT('',(36.75,111.,9.));
#853=CARTESIAN_POINT('Origin',(60.,111.,11.5));
#854=CARTESIAN_POINT('',(83.25,111.,14.));
#855=CARTESIAN_POINT('',(36.75,111.,14.));
#856=CARTESIAN_POINT('Origin',(35.25,6.5,59.));
#857=CARTESIAN_POINT('',(33.75,9.,59.));
#858=CARTESIAN_POINT('',(33.75,4.,59.));
#859=CARTESIAN_POINT('',(33.75,9.,59.));
#860=CARTESIAN_POINT('',(36.75,4.,59.));
#861=CARTESIAN_POINT('',(75.625,4.,59.));
#862=CARTESIAN_POINT('',(36.75,9.,59.));
#863=CARTESIAN_POINT('',(36.75,4.,59.));
#864=CARTESIAN_POINT('',(36.75,9.,59.));
#865=CARTESIAN_POINT('Origin',(83.25,0.,14.));
#866=CARTESIAN_POINT('',(36.75,9.,14.));
#867=CARTESIAN_POINT('',(36.75,0.,14.));
#868=CARTESIAN_POINT('',(36.75,2.,14.));
#869=CARTESIAN_POINT('',(83.25,0.,14.));
#870=CARTESIAN_POINT('',(41.625,0.,14.));
#871=CARTESIAN_POINT('',(83.25,9.,14.));
#872=CARTESIAN_POINT('',(83.25,0.,14.));
#873=CARTESIAN_POINT('',(36.75,9.,14.));
#874=CARTESIAN_POINT('Origin',(84.75,6.5,59.));
#875=CARTESIAN_POINT('',(86.25,4.,59.));
#876=CARTESIAN_POINT('',(86.25,9.,59.));
#877=CARTESIAN_POINT('',(86.25,4.,59.));
#878=CARTESIAN_POINT('',(83.25,9.,59.));
#879=CARTESIAN_POINT('',(86.25,9.,59.));
#880=CARTESIAN_POINT('',(83.25,4.,59.));
#881=CARTESIAN_POINT('',(83.25,9.,59.));
#882=CARTESIAN_POINT('',(100.375,4.,59.));
#883=CARTESIAN_POINT('Origin',(86.25,4.,14.));
#884=CARTESIAN_POINT('',(86.25,4.,9.));
#885=CARTESIAN_POINT('',(86.25,4.,7.));
#886=CARTESIAN_POINT('',(86.25,9.,9.));
#887=CARTESIAN_POINT('',(86.25,4.,9.));
#888=CARTESIAN_POINT('',(86.25,9.,9.));
#889=CARTESIAN_POINT('Origin',(33.75,4.,9.));
#890=CARTESIAN_POINT('',(33.75,4.,9.));
#891=CARTESIAN_POINT('',(33.75,4.,7.));
#892=CARTESIAN_POINT('',(33.75,9.,9.));
#893=CARTESIAN_POINT('',(33.75,9.,14.));
#894=CARTESIAN_POINT('',(33.75,4.,9.));
#895=CARTESIAN_POINT('Origin',(116.,4.,0.));
#896=CARTESIAN_POINT('',(99.625,4.,9.));
#897=CARTESIAN_POINT('',(83.25,4.,60.));
#898=CARTESIAN_POINT('',(83.25,4.,30.));
#899=CARTESIAN_POINT('',(116.,4.,60.));
#900=CARTESIAN_POINT('',(4.,4.,60.));
#901=CARTESIAN_POINT('',(116.,4.,0.));
#902=CARTESIAN_POINT('',(116.,4.,0.));
#903=CARTESIAN_POINT('',(4.,4.,0.));
#904=CARTESIAN_POINT('',(4.,4.,0.));
#905=CARTESIAN_POINT('',(4.,4.,60.));
#906=CARTESIAN_POINT('',(4.,4.,0.));
#907=CARTESIAN_POINT('',(36.75,4.,60.));
#908=CARTESIAN_POINT('',(4.,4.,60.));
#909=CARTESIAN_POINT('',(36.75,4.,7.));
#910=CARTESIAN_POINT('Origin',(83.25,4.,9.));
#911=CARTESIAN_POINT('',(83.25,9.,9.));
#912=CARTESIAN_POINT('Origin',(60.,9.,11.5));
#913=CARTESIAN_POINT('',(36.75,9.,14.));
#914=CARTESIAN_POINT('',(83.25,9.,14.));
#915=CARTESIAN_POINT('Origin',(36.75,0.,14.));
#916=CARTESIAN_POINT('',(36.75,0.,60.));
#917=CARTESIAN_POINT('',(36.75,30.,60.));
#918=CARTESIAN_POINT('',(36.75,0.,7.));
#919=CARTESIAN_POINT('Origin',(36.75,0.,14.));
#920=CARTESIAN_POINT('',(36.75,120.,60.));
#921=CARTESIAN_POINT('',(36.75,120.,7.));
#922=CARTESIAN_POINT('',(36.75,30.,60.));
#923=CARTESIAN_POINT('Origin',(83.25,0.,60.));
#924=CARTESIAN_POINT('',(83.25,0.,60.));
#925=CARTESIAN_POINT('',(83.25,0.,30.));
#926=CARTESIAN_POINT('',(83.25,30.,60.));
#927=CARTESIAN_POINT('Origin',(83.25,0.,60.));
#928=CARTESIAN_POINT('',(83.25,120.,60.));
#929=CARTESIAN_POINT('',(83.25,30.,60.));
#930=CARTESIAN_POINT('',(83.25,120.,30.));
#931=CARTESIAN_POINT('Origin',(120.,120.,0.));
#932=CARTESIAN_POINT('',(120.,120.,60.));
#933=CARTESIAN_POINT('',(120.,120.,60.));
#934=CARTESIAN_POINT('',(120.,120.,0.));
#935=CARTESIAN_POINT('',(120.,120.,0.));
#936=CARTESIAN_POINT('',(0.,120.,0.));
#937=CARTESIAN_POINT('',(120.,120.,0.));
#938=CARTESIAN_POINT('',(0.,120.,60.));
#939=CARTESIAN_POINT('',(0.,120.,0.));
#940=CARTESIAN_POINT('',(120.,120.,60.));
#941=CARTESIAN_POINT('Origin',(60.,60.,60.));
#942=CARTESIAN_POINT('',(116.,4.,60.));
#943=CARTESIAN_POINT('',(120.,0.,60.));
#944=CARTESIAN_POINT('',(0.,0.,60.));
#945=CARTESIAN_POINT('',(120.,0.,60.));
#946=CARTESIAN_POINT('Origin',(60.,60.,60.));
#947=CARTESIAN_POINT('',(0.,0.,60.));
#948=CARTESIAN_POINT('',(0.,120.,60.));
#949=CARTESIAN_POINT('',(0.,0.,60.));
#950=CARTESIAN_POINT('',(4.,116.,60.));
#951=CARTESIAN_POINT('Origin',(116.,116.,0.));
#952=CARTESIAN_POINT('',(116.,4.,0.));
#953=CARTESIAN_POINT('Origin',(4.,4.,0.));
#954=CARTESIAN_POINT('',(4.,116.,0.));
#955=CARTESIAN_POINT('Origin',(120.,0.,0.));
#956=CARTESIAN_POINT('',(120.,0.,0.));
#957=CARTESIAN_POINT('',(120.,0.,0.));
#958=CARTESIAN_POINT('',(120.,0.,0.));
#959=CARTESIAN_POINT('Origin',(0.,0.,0.));
#960=CARTESIAN_POINT('',(0.,0.,0.));
#961=CARTESIAN_POINT('',(0.,0.,0.));
#962=CARTESIAN_POINT('',(0.,0.,0.));
#963=CARTESIAN_POINT('Origin',(0.,120.,0.));
#964=CARTESIAN_POINT('',(0.,120.,0.));
#965=CARTESIAN_POINT('Origin',(60.,60.,0.));
#966=UNCERTAINTY_MEASURE_WITH_UNIT(LENGTH_MEASURE(0.01),#970,
'DISTANCE_ACCURACY_VALUE',
'Maximum model space distance between geometric entities at asserted c
onnectivities');
#967=UNCERTAINTY_MEASURE_WITH_UNIT(LENGTH_MEASURE(0.01),#970,
'DISTANCE_ACCURACY_VALUE',
'Maximum model space distance between geometric entities at asserted c
onnectivities');
#968=(
GEOMETRIC_REPRESENTATION_CONTEXT(3)
GLOBAL_UNCERTAINTY_ASSIGNED_CONTEXT((#966))
GLOBAL_UNIT_ASSIGNED_CONTEXT((#970,#972,#973))
REPRESENTATION_CONTEXT('','3D')
);
#969=(
GEOMETRIC_REPRESENTATION_CONTEXT(3)
GLOBAL_UNCERTAINTY_ASSIGNED_CONTEXT((#967))
GLOBAL_UNIT_ASSIGNED_CONTEXT((#970,#972,#973))
REPRESENTATION_CONTEXT('','3D')
);
#970=(
LENGTH_UNIT()
NAMED_UNIT(*)
SI_UNIT(.MILLI.,.METRE.)
);
#971=(
LENGTH_UNIT()
NAMED_UNIT(*)
SI_UNIT($,.METRE.)
);
#972=(
NAMED_UNIT(*)
PLANE_ANGLE_UNIT()
SI_UNIT($,.RADIAN.)
);
#973=(
NAMED_UNIT(*)
SI_UNIT($,.STERADIAN.)
SOLID_ANGLE_UNIT()
);
#974=SHAPE_DEFINITION_REPRESENTATION(#975,#976);
#975=PRODUCT_DEFINITION_SHAPE('',$,#978);
#976=SHAPE_REPRESENTATION('',(#622),#968);
#977=PRODUCT_DEFINITION_CONTEXT('part definition',#982,'design');
#978=PRODUCT_DEFINITION('2026-07-30-11-25-05-133','Prang_Lower_Middle',
#979,#977);
#979=PRODUCT_DEFINITION_FORMATION('',$,#984);
#980=PRODUCT_RELATED_PRODUCT_CATEGORY('Prang_Lower_Middle',
'Prang_Lower_Middle',(#984));
#981=APPLICATION_PROTOCOL_DEFINITION('international standard',
'automotive_design',2009,#982);
#982=APPLICATION_CONTEXT(
'Core Data for Automotive Mechanical Design Process');
#983=PRODUCT_CONTEXT('part definition',#982,'mechanical');
#984=PRODUCT('2026-07-30-11-25-05-133','Prang_Lower_Middle',$,(#983));
#985=PRESENTATION_STYLE_ASSIGNMENT((#986));
#986=SURFACE_STYLE_USAGE(.BOTH.,#987);
#987=SURFACE_SIDE_STYLE('',(#988));
#988=SURFACE_STYLE_FILL_AREA(#989);
#989=FILL_AREA_STYLE('Steel - Satin',(#990));
#990=FILL_AREA_STYLE_COLOUR('Steel - Satin',#991);
#991=COLOUR_RGB('Steel - Satin',0.627450980392157,0.627450980392157,0.627450980392157);
ENDSEC;
END-ISO-10303-21;
