ISO-10303-21;
HEADER;
/* Generated by software containing ST-Developer
 * from STEP Tools, Inc. (www.steptools.com) 
 */

FILE_DESCRIPTION(
/* description */ (''),
/* implementation_level */ '2;1');

FILE_NAME(
/* name */ 'Prang_Top_Section.step',
/* time_stamp */ '2026-08-13T10:39:14+07:00',
/* author */ (''),
/* organization */ (''),
/* preprocessor_version */ 'ST-DEVELOPER v20.1',
/* originating_system */ 'Autodesk Translation Framework v15.8.0.0',
/* authorisation */ '');

FILE_SCHEMA (('AUTOMOTIVE_DESIGN { 1 0 10303 214 3 1 1 }'));
ENDSEC;

DATA;
#10=MECHANICAL_DESIGN_GEOMETRIC_PRESENTATION_REPRESENTATION('',(#13),#344);
#11=SHAPE_REPRESENTATION_RELATIONSHIP('SRR','None',#351,#12);
#12=ADVANCED_BREP_SHAPE_REPRESENTATION('',(#14),#343);
#13=STYLED_ITEM('',(#360),#14);
#14=MANIFOLD_SOLID_BREP('Body1',#173);
#15=(
BOUNDED_SURFACE()
B_SPLINE_SURFACE(2,2,((#313,#314,#315,#316,#317,#318,#319,#320,#321),(#322,
#323,#324,#325,#326,#327,#328,#329,#330),(#331,#332,#333,#334,#335,#336,
#337,#338,#339)),.UNSPECIFIED.,.F.,.T.,.F.)
B_SPLINE_SURFACE_WITH_KNOTS((3,3),(3,2,2,2,3),(0.363012485735128,1.49700483516549),
(-3.14159265358979,-1.5707963267949,0.,1.5707963267949,3.14159265358979),
 .UNSPECIFIED.)
GEOMETRIC_REPRESENTATION_ITEM()
RATIONAL_B_SPLINE_SURFACE(((1.,0.707106781186548,1.,0.707106781186548,1.,
0.707106781186548,1.,0.707106781186548,1.),(0.843518134897886,0.596457393240124,
0.843518134897886,0.596457393240124,0.843518134897886,0.596457393240124,
0.843518134897886,0.596457393240124,0.843518134897886),(1.,0.707106781186548,
1.,0.707106781186548,1.,0.707106781186548,1.,0.707106781186548,1.)))
REPRESENTATION_ITEM('')
SURFACE()
);
#16=FACE_BOUND('',#44,.T.);
#17=FACE_BOUND('',#48,.T.);
#18=FACE_BOUND('',#50,.T.);
#19=PLANE('',#197);
#20=PLANE('',#203);
#21=PLANE('',#204);
#22=CYLINDRICAL_SURFACE('',#190,36.);
#23=CYLINDRICAL_SURFACE('',#195,32.7498146913733);
#24=CYLINDRICAL_SURFACE('',#201,28.8294746485931);
#25=CYLINDRICAL_SURFACE('',#206,5.5);
#26=CYLINDRICAL_SURFACE('',#208,39.);
#27=FACE_OUTER_BOUND('',#39,.T.);
#28=FACE_OUTER_BOUND('',#40,.T.);
#29=FACE_OUTER_BOUND('',#41,.T.);
#30=FACE_OUTER_BOUND('',#42,.T.);
#31=FACE_OUTER_BOUND('',#43,.T.);
#32=FACE_OUTER_BOUND('',#45,.T.);
#33=FACE_OUTER_BOUND('',#46,.T.);
#34=FACE_OUTER_BOUND('',#47,.T.);
#35=FACE_OUTER_BOUND('',#49,.T.);
#36=FACE_OUTER_BOUND('',#51,.T.);
#37=FACE_OUTER_BOUND('',#52,.T.);
#38=FACE_OUTER_BOUND('',#53,.T.);
#39=EDGE_LOOP('',(#116,#117,#118,#119));
#40=EDGE_LOOP('',(#120,#121,#122,#123));
#41=EDGE_LOOP('',(#124,#125,#126,#127));
#42=EDGE_LOOP('',(#128,#129,#130,#131));
#43=EDGE_LOOP('',(#132));
#44=EDGE_LOOP('',(#133));
#45=EDGE_LOOP('',(#134,#135,#136,#137));
#46=EDGE_LOOP('',(#138,#139,#140,#141));
#47=EDGE_LOOP('',(#142));
#48=EDGE_LOOP('',(#143));
#49=EDGE_LOOP('',(#144));
#50=EDGE_LOOP('',(#145));
#51=EDGE_LOOP('',(#146,#147,#148,#149));
#52=EDGE_LOOP('',(#150,#151,#152,#153));
#53=EDGE_LOOP('',(#154,#155,#156,#157));
#54=LINE('',#274,#62);
#55=LINE('',#278,#63);
#56=LINE('',#284,#64);
#57=LINE('',#288,#65);
#58=LINE('',#295,#66);
#59=LINE('',#299,#67);
#60=LINE('',#307,#68);
#61=LINE('',#312,#69);
#62=VECTOR('',#217,37.5);
#63=VECTOR('',#222,36.);
#64=VECTOR('',#229,34.2498146913733);
#65=VECTOR('',#234,32.7498146913733);
#66=VECTOR('',#243,30.3294746485931);
#67=VECTOR('',#248,28.8294746485931);
#68=VECTOR('',#259,5.5);
#69=VECTOR('',#266,39.);
#70=CIRCLE('',#188,39.);
#71=CIRCLE('',#189,36.);
#72=CIRCLE('',#191,36.);
#73=CIRCLE('',#193,35.7498146913733);
#74=CIRCLE('',#194,32.7498146913733);
#75=CIRCLE('',#196,32.7498146913733);
#76=CIRCLE('',#199,31.8294746485931);
#77=CIRCLE('',#200,28.8294746485931);
#78=CIRCLE('',#202,28.8294746485931);
#79=CIRCLE('',#205,5.5);
#80=CIRCLE('',#207,5.5);
#81=CIRCLE('',#209,39.);
#82=CIRCLE('',#210,38.9034198650754);
#83=VERTEX_POINT('',#271);
#84=VERTEX_POINT('',#273);
#85=VERTEX_POINT('',#277);
#86=VERTEX_POINT('',#281);
#87=VERTEX_POINT('',#283);
#88=VERTEX_POINT('',#287);
#89=VERTEX_POINT('',#292);
#90=VERTEX_POINT('',#294);
#91=VERTEX_POINT('',#298);
#92=VERTEX_POINT('',#303);
#93=VERTEX_POINT('',#306);
#94=VERTEX_POINT('',#310);
#95=EDGE_CURVE('',#83,#83,#70,.T.);
#96=EDGE_CURVE('',#83,#84,#54,.T.);
#97=EDGE_CURVE('',#84,#84,#71,.T.);
#98=EDGE_CURVE('',#84,#85,#55,.T.);
#99=EDGE_CURVE('',#85,#85,#72,.T.);
#100=EDGE_CURVE('',#86,#86,#73,.T.);
#101=EDGE_CURVE('',#86,#87,#56,.T.);
#102=EDGE_CURVE('',#87,#87,#74,.T.);
#103=EDGE_CURVE('',#87,#88,#57,.T.);
#104=EDGE_CURVE('',#88,#88,#75,.T.);
#105=EDGE_CURVE('',#89,#89,#76,.T.);
#106=EDGE_CURVE('',#89,#90,#58,.T.);
#107=EDGE_CURVE('',#90,#90,#77,.T.);
#108=EDGE_CURVE('',#90,#91,#59,.T.);
#109=EDGE_CURVE('',#91,#91,#78,.T.);
#110=EDGE_CURVE('',#92,#92,#79,.T.);
#111=EDGE_CURVE('',#92,#93,#60,.T.);
#112=EDGE_CURVE('',#93,#93,#80,.T.);
#113=EDGE_CURVE('',#94,#94,#81,.T.);
#114=EDGE_CURVE('',#94,#83,#61,.T.);
#115=EDGE_CURVE('',#93,#94,#82,.T.);
#116=ORIENTED_EDGE('',*,*,#95,.F.);
#117=ORIENTED_EDGE('',*,*,#96,.T.);
#118=ORIENTED_EDGE('',*,*,#97,.T.);
#119=ORIENTED_EDGE('',*,*,#96,.F.);
#120=ORIENTED_EDGE('',*,*,#97,.F.);
#121=ORIENTED_EDGE('',*,*,#98,.T.);
#122=ORIENTED_EDGE('',*,*,#99,.T.);
#123=ORIENTED_EDGE('',*,*,#98,.F.);
#124=ORIENTED_EDGE('',*,*,#100,.T.);
#125=ORIENTED_EDGE('',*,*,#101,.T.);
#126=ORIENTED_EDGE('',*,*,#102,.T.);
#127=ORIENTED_EDGE('',*,*,#101,.F.);
#128=ORIENTED_EDGE('',*,*,#102,.F.);
#129=ORIENTED_EDGE('',*,*,#103,.T.);
#130=ORIENTED_EDGE('',*,*,#104,.T.);
#131=ORIENTED_EDGE('',*,*,#103,.F.);
#132=ORIENTED_EDGE('',*,*,#99,.F.);
#133=ORIENTED_EDGE('',*,*,#100,.F.);
#134=ORIENTED_EDGE('',*,*,#105,.T.);
#135=ORIENTED_EDGE('',*,*,#106,.T.);
#136=ORIENTED_EDGE('',*,*,#107,.T.);
#137=ORIENTED_EDGE('',*,*,#106,.F.);
#138=ORIENTED_EDGE('',*,*,#107,.F.);
#139=ORIENTED_EDGE('',*,*,#108,.T.);
#140=ORIENTED_EDGE('',*,*,#109,.T.);
#141=ORIENTED_EDGE('',*,*,#108,.F.);
#142=ORIENTED_EDGE('',*,*,#104,.F.);
#143=ORIENTED_EDGE('',*,*,#105,.F.);
#144=ORIENTED_EDGE('',*,*,#109,.F.);
#145=ORIENTED_EDGE('',*,*,#110,.F.);
#146=ORIENTED_EDGE('',*,*,#110,.T.);
#147=ORIENTED_EDGE('',*,*,#111,.T.);
#148=ORIENTED_EDGE('',*,*,#112,.F.);
#149=ORIENTED_EDGE('',*,*,#111,.F.);
#150=ORIENTED_EDGE('',*,*,#113,.F.);
#151=ORIENTED_EDGE('',*,*,#114,.T.);
#152=ORIENTED_EDGE('',*,*,#95,.T.);
#153=ORIENTED_EDGE('',*,*,#114,.F.);
#154=ORIENTED_EDGE('',*,*,#112,.T.);
#155=ORIENTED_EDGE('',*,*,#115,.T.);
#156=ORIENTED_EDGE('',*,*,#113,.T.);
#157=ORIENTED_EDGE('',*,*,#115,.F.);
#158=CONICAL_SURFACE('',#187,37.5,0.785398163397448);
#159=CONICAL_SURFACE('',#192,34.2498146913733,0.785398163397448);
#160=CONICAL_SURFACE('',#198,30.3294746485931,0.785398163397449);
#161=ADVANCED_FACE('',(#27),#158,.F.);
#162=ADVANCED_FACE('',(#28),#22,.F.);
#163=ADVANCED_FACE('',(#29),#159,.F.);
#164=ADVANCED_FACE('',(#30),#23,.F.);
#165=ADVANCED_FACE('',(#31,#16),#19,.F.);
#166=ADVANCED_FACE('',(#32),#160,.F.);
#167=ADVANCED_FACE('',(#33),#24,.F.);
#168=ADVANCED_FACE('',(#34,#17),#20,.T.);
#169=ADVANCED_FACE('',(#35,#18),#21,.T.);
#170=ADVANCED_FACE('',(#36),#25,.F.);
#171=ADVANCED_FACE('',(#37),#26,.T.);
#172=ADVANCED_FACE('',(#38),#15,.F.);
#173=CLOSED_SHELL('',(#161,#162,#163,#164,#165,#166,#167,#168,#169,#170,
#171,#172));
#174=DERIVED_UNIT_ELEMENT(#176,1.);
#175=DERIVED_UNIT_ELEMENT(#346,-3.);
#176=(
MASS_UNIT()
NAMED_UNIT(*)
SI_UNIT(.KILO.,.GRAM.)
);
#177=DERIVED_UNIT((#174,#175));
#178=MEASURE_REPRESENTATION_ITEM('density measure',
POSITIVE_RATIO_MEASURE(7850.),#177);
#179=PROPERTY_DEFINITION_REPRESENTATION(#184,#181);
#180=PROPERTY_DEFINITION_REPRESENTATION(#185,#182);
#181=REPRESENTATION('material name',(#183),#343);
#182=REPRESENTATION('density',(#178),#343);
#183=DESCRIPTIVE_REPRESENTATION_ITEM('Steel','Steel');
#184=PROPERTY_DEFINITION('material property','material name',#353);
#185=PROPERTY_DEFINITION('material property','density of part',#353);
#186=AXIS2_PLACEMENT_3D('',#269,#211,#212);
#187=AXIS2_PLACEMENT_3D('',#270,#213,#214);
#188=AXIS2_PLACEMENT_3D('',#272,#215,#216);
#189=AXIS2_PLACEMENT_3D('',#275,#218,#219);
#190=AXIS2_PLACEMENT_3D('',#276,#220,#221);
#191=AXIS2_PLACEMENT_3D('',#279,#223,#224);
#192=AXIS2_PLACEMENT_3D('',#280,#225,#226);
#193=AXIS2_PLACEMENT_3D('',#282,#227,#228);
#194=AXIS2_PLACEMENT_3D('',#285,#230,#231);
#195=AXIS2_PLACEMENT_3D('',#286,#232,#233);
#196=AXIS2_PLACEMENT_3D('',#289,#235,#236);
#197=AXIS2_PLACEMENT_3D('',#290,#237,#238);
#198=AXIS2_PLACEMENT_3D('',#291,#239,#240);
#199=AXIS2_PLACEMENT_3D('',#293,#241,#242);
#200=AXIS2_PLACEMENT_3D('',#296,#244,#245);
#201=AXIS2_PLACEMENT_3D('',#297,#246,#247);
#202=AXIS2_PLACEMENT_3D('',#300,#249,#250);
#203=AXIS2_PLACEMENT_3D('',#301,#251,#252);
#204=AXIS2_PLACEMENT_3D('',#302,#253,#254);
#205=AXIS2_PLACEMENT_3D('',#304,#255,#256);
#206=AXIS2_PLACEMENT_3D('',#305,#257,#258);
#207=AXIS2_PLACEMENT_3D('',#308,#260,#261);
#208=AXIS2_PLACEMENT_3D('',#309,#262,#263);
#209=AXIS2_PLACEMENT_3D('',#311,#264,#265);
#210=AXIS2_PLACEMENT_3D('',#340,#267,#268);
#211=DIRECTION('axis',(0.,0.,1.));
#212=DIRECTION('refdir',(1.,0.,0.));
#213=DIRECTION('center_axis',(0.,0.,-1.));
#214=DIRECTION('ref_axis',(1.,0.,0.));
#215=DIRECTION('center_axis',(0.,0.,1.));
#216=DIRECTION('ref_axis',(1.,0.,0.));
#217=DIRECTION('',(0.707106781186547,-8.65956056235493E-17,0.707106781186548));
#218=DIRECTION('center_axis',(0.,0.,1.));
#219=DIRECTION('ref_axis',(1.,0.,0.));
#220=DIRECTION('center_axis',(0.,0.,1.));
#221=DIRECTION('ref_axis',(1.,0.,0.));
#222=DIRECTION('',(0.,0.,1.));
#223=DIRECTION('center_axis',(0.,0.,1.));
#224=DIRECTION('ref_axis',(1.,0.,0.));
#225=DIRECTION('center_axis',(0.,0.,-1.));
#226=DIRECTION('ref_axis',(1.,0.,0.));
#227=DIRECTION('center_axis',(0.,0.,-1.));
#228=DIRECTION('ref_axis',(1.,0.,0.));
#229=DIRECTION('',(0.707106781186548,-8.65956056235493E-17,0.707106781186548));
#230=DIRECTION('center_axis',(0.,0.,1.));
#231=DIRECTION('ref_axis',(1.,0.,0.));
#232=DIRECTION('center_axis',(0.,0.,1.));
#233=DIRECTION('ref_axis',(1.,0.,0.));
#234=DIRECTION('',(0.,0.,1.));
#235=DIRECTION('center_axis',(0.,0.,1.));
#236=DIRECTION('ref_axis',(1.,0.,0.));
#237=DIRECTION('center_axis',(0.,0.,1.));
#238=DIRECTION('ref_axis',(1.,0.,0.));
#239=DIRECTION('center_axis',(0.,0.,-1.));
#240=DIRECTION('ref_axis',(1.,0.,0.));
#241=DIRECTION('center_axis',(0.,0.,-1.));
#242=DIRECTION('ref_axis',(1.,0.,0.));
#243=DIRECTION('',(0.707106781186548,-8.65956056235494E-17,0.707106781186547));
#244=DIRECTION('center_axis',(0.,0.,1.));
#245=DIRECTION('ref_axis',(1.,0.,0.));
#246=DIRECTION('center_axis',(0.,0.,1.));
#247=DIRECTION('ref_axis',(1.,0.,0.));
#248=DIRECTION('',(0.,0.,1.));
#249=DIRECTION('center_axis',(0.,0.,1.));
#250=DIRECTION('ref_axis',(1.,0.,0.));
#251=DIRECTION('center_axis',(0.,0.,-1.));
#252=DIRECTION('ref_axis',(1.,0.,0.));
#253=DIRECTION('center_axis',(0.,0.,-1.));
#254=DIRECTION('ref_axis',(1.,0.,0.));
#255=DIRECTION('center_axis',(0.,0.,-1.));
#256=DIRECTION('ref_axis',(1.,0.,0.));
#257=DIRECTION('center_axis',(0.,0.,1.));
#258=DIRECTION('ref_axis',(1.,0.,0.));
#259=DIRECTION('',(0.,0.,1.));
#260=DIRECTION('center_axis',(0.,0.,-1.));
#261=DIRECTION('ref_axis',(1.,0.,0.));
#262=DIRECTION('center_axis',(0.,0.,1.));
#263=DIRECTION('ref_axis',(1.,0.,0.));
#264=DIRECTION('center_axis',(0.,0.,1.));
#265=DIRECTION('ref_axis',(1.,0.,0.));
#266=DIRECTION('',(0.,0.,-1.));
#267=DIRECTION('center_axis',(1.22464679914735E-16,-1.,0.));
#268=DIRECTION('ref_axis',(-1.,-1.22464679914735E-16,0.));
#269=CARTESIAN_POINT('',(0.,0.,0.));
#270=CARTESIAN_POINT('Origin',(0.,0.,1.5));
#271=CARTESIAN_POINT('',(-39.,-4.77612251667468E-15,0.));
#272=CARTESIAN_POINT('Origin',(0.,0.,0.));
#273=CARTESIAN_POINT('',(-36.,-4.40872847693047E-15,3.));
#274=CARTESIAN_POINT('',(-37.5,4.59242549680257E-15,1.5));
#275=CARTESIAN_POINT('Origin',(0.,0.,3.));
#276=CARTESIAN_POINT('Origin',(0.,0.,0.));
#277=CARTESIAN_POINT('',(-36.,-4.40872847693047E-15,54.));
#278=CARTESIAN_POINT('',(-36.,-4.40872847693047E-15,0.));
#279=CARTESIAN_POINT('Origin',(0.,0.,54.));
#280=CARTESIAN_POINT('Origin',(0.,0.,55.5));
#281=CARTESIAN_POINT('',(-35.7498146913733,4.37808961319013E-15,54.));
#282=CARTESIAN_POINT('Origin',(0.,0.,54.));
#283=CARTESIAN_POINT('',(-32.7498146913733,-4.01069557344593E-15,57.));
#284=CARTESIAN_POINT('',(-34.2498146913733,4.19439259331803E-15,55.5));
#285=CARTESIAN_POINT('Origin',(0.,0.,57.));
#286=CARTESIAN_POINT('Origin',(0.,0.,54.));
#287=CARTESIAN_POINT('',(-32.7498146913733,4.01069557344593E-15,58.));
#288=CARTESIAN_POINT('',(-32.7498146913733,-4.01069557344593E-15,54.));
#289=CARTESIAN_POINT('Origin',(0.,0.,58.));
#290=CARTESIAN_POINT('Origin',(0.,0.,54.));
#291=CARTESIAN_POINT('Origin',(0.,0.,59.5));
#292=CARTESIAN_POINT('',(-31.8294746485931,3.89798642469414E-15,58.));
#293=CARTESIAN_POINT('Origin',(0.,0.,58.));
#294=CARTESIAN_POINT('',(-28.8294746485931,-3.53059238494993E-15,61.));
#295=CARTESIAN_POINT('',(-30.3294746485931,3.71428940482204E-15,59.5));
#296=CARTESIAN_POINT('Origin',(0.,0.,61.));
#297=CARTESIAN_POINT('Origin',(0.,0.,58.));
#298=CARTESIAN_POINT('',(-28.8294746485931,3.53059238494993E-15,61.5));
#299=CARTESIAN_POINT('',(-28.8294746485931,-3.53059238494993E-15,58.));
#300=CARTESIAN_POINT('Origin',(0.,0.,61.5));
#301=CARTESIAN_POINT('Origin',(0.,0.,58.));
#302=CARTESIAN_POINT('Origin',(0.,0.,61.5));
#303=CARTESIAN_POINT('',(-5.5,6.73555739531044E-16,61.5));
#304=CARTESIAN_POINT('Origin',(0.,0.,61.5));
#305=CARTESIAN_POINT('Origin',(0.,0.,37.49162817943));
#306=CARTESIAN_POINT('',(-5.5,-6.73555739531044E-16,74.9832563588601));
#307=CARTESIAN_POINT('',(-5.5,-6.73555739531044E-16,37.49162817943));
#308=CARTESIAN_POINT('Origin',(0.,0.,74.9832563588601));
#309=CARTESIAN_POINT('Origin',(0.,0.,25.));
#310=CARTESIAN_POINT('',(-39.,-4.77612251667468E-15,50.));
#311=CARTESIAN_POINT('Origin',(0.,0.,50.));
#312=CARTESIAN_POINT('',(-39.,-4.77612251667468E-15,25.));
#313=CARTESIAN_POINT('Ctrl Pts',(-39.,0.,50.));
#314=CARTESIAN_POINT('Ctrl Pts',(-39.,-39.,50.));
#315=CARTESIAN_POINT('Ctrl Pts',(0.,-39.,50.));
#316=CARTESIAN_POINT('Ctrl Pts',(39.,-39.,50.));
#317=CARTESIAN_POINT('Ctrl Pts',(39.,0.,50.));
#318=CARTESIAN_POINT('Ctrl Pts',(39.,39.,50.));
#319=CARTESIAN_POINT('Ctrl Pts',(0.,39.,50.));
#320=CARTESIAN_POINT('Ctrl Pts',(-39.,39.,50.));
#321=CARTESIAN_POINT('Ctrl Pts',(-39.,0.,50.));
#322=CARTESIAN_POINT('Ctrl Pts',(-30.2039038863551,0.,73.157002475139));
#323=CARTESIAN_POINT('Ctrl Pts',(-30.2039038863551,-30.2039038863551,73.157002475139));
#324=CARTESIAN_POINT('Ctrl Pts',(0.,-30.2039038863551,73.157002475139));
#325=CARTESIAN_POINT('Ctrl Pts',(30.2039038863551,-30.2039038863551,73.157002475139));
#326=CARTESIAN_POINT('Ctrl Pts',(30.2039038863551,0.,73.157002475139));
#327=CARTESIAN_POINT('Ctrl Pts',(30.2039038863551,30.2039038863551,73.157002475139));
#328=CARTESIAN_POINT('Ctrl Pts',(0.,30.2039038863551,73.157002475139));
#329=CARTESIAN_POINT('Ctrl Pts',(-30.2039038863551,30.2039038863551,73.157002475139));
#330=CARTESIAN_POINT('Ctrl Pts',(-30.2039038863551,0.,73.157002475139));
#331=CARTESIAN_POINT('Ctrl Pts',(-5.5,0.,74.9832563588601));
#332=CARTESIAN_POINT('Ctrl Pts',(-5.5,-5.5,74.9832563588601));
#333=CARTESIAN_POINT('Ctrl Pts',(0.,-5.5,74.9832563588601));
#334=CARTESIAN_POINT('Ctrl Pts',(5.5,-5.5,74.9832563588601));
#335=CARTESIAN_POINT('Ctrl Pts',(5.5,0.,74.9832563588601));
#336=CARTESIAN_POINT('Ctrl Pts',(5.5,5.5,74.9832563588601));
#337=CARTESIAN_POINT('Ctrl Pts',(0.,5.5,74.9832563588601));
#338=CARTESIAN_POINT('Ctrl Pts',(-5.5,5.5,74.9832563588601));
#339=CARTESIAN_POINT('Ctrl Pts',(-5.5,0.,74.9832563588601));
#340=CARTESIAN_POINT('Origin',(-2.63186319540288,-3.22310283804386E-16,
36.1857065848285));
#341=UNCERTAINTY_MEASURE_WITH_UNIT(LENGTH_MEASURE(0.01),#345,
'DISTANCE_ACCURACY_VALUE',
'Maximum model space distance between geometric entities at asserted c
onnectivities');
#342=UNCERTAINTY_MEASURE_WITH_UNIT(LENGTH_MEASURE(0.01),#345,
'DISTANCE_ACCURACY_VALUE',
'Maximum model space distance between geometric entities at asserted c
onnectivities');
#343=(
GEOMETRIC_REPRESENTATION_CONTEXT(3)
GLOBAL_UNCERTAINTY_ASSIGNED_CONTEXT((#341))
GLOBAL_UNIT_ASSIGNED_CONTEXT((#345,#347,#348))
REPRESENTATION_CONTEXT('','3D')
);
#344=(
GEOMETRIC_REPRESENTATION_CONTEXT(3)
GLOBAL_UNCERTAINTY_ASSIGNED_CONTEXT((#342))
GLOBAL_UNIT_ASSIGNED_CONTEXT((#345,#347,#348))
REPRESENTATION_CONTEXT('','3D')
);
#345=(
LENGTH_UNIT()
NAMED_UNIT(*)
SI_UNIT(.MILLI.,.METRE.)
);
#346=(
LENGTH_UNIT()
NAMED_UNIT(*)
SI_UNIT($,.METRE.)
);
#347=(
NAMED_UNIT(*)
PLANE_ANGLE_UNIT()
SI_UNIT($,.RADIAN.)
);
#348=(
NAMED_UNIT(*)
SI_UNIT($,.STERADIAN.)
SOLID_ANGLE_UNIT()
);
#349=SHAPE_DEFINITION_REPRESENTATION(#350,#351);
#350=PRODUCT_DEFINITION_SHAPE('',$,#353);
#351=SHAPE_REPRESENTATION('',(#186),#343);
#352=PRODUCT_DEFINITION_CONTEXT('part definition',#357,'design');
#353=PRODUCT_DEFINITION('2026-07-06-13-33-31-956','Prang Top Section',#354,
#352);
#354=PRODUCT_DEFINITION_FORMATION('',$,#359);
#355=PRODUCT_RELATED_PRODUCT_CATEGORY('Prang Top Section',
'Prang Top Section',(#359));
#356=APPLICATION_PROTOCOL_DEFINITION('international standard',
'automotive_design',2009,#357);
#357=APPLICATION_CONTEXT(
'Core Data for Automotive Mechanical Design Process');
#358=PRODUCT_CONTEXT('part definition',#357,'mechanical');
#359=PRODUCT('2026-07-06-13-33-31-956','Prang Top Section',$,(#358));
#360=PRESENTATION_STYLE_ASSIGNMENT((#361));
#361=SURFACE_STYLE_USAGE(.BOTH.,#362);
#362=SURFACE_SIDE_STYLE('',(#363));
#363=SURFACE_STYLE_FILL_AREA(#364);
#364=FILL_AREA_STYLE('Steel - Satin',(#365));
#365=FILL_AREA_STYLE_COLOUR('Steel - Satin',#366);
#366=COLOUR_RGB('Steel - Satin',0.627450980392157,0.627450980392157,0.627450980392157);
ENDSEC;
END-ISO-10303-21;
